<svg width="24" height="24" viewBox="0 0 24 24" fill="none" xmlns="http://www.w3.org/2000/svg">
<g>
<path d="M20.261 6.182C19.7891 5.70983 19.2289 5.33526 18.6122 5.07971C17.9955 4.82415 17.3345 4.69262 16.667 4.69262C15.9995 4.69262 15.3385 4.82415 14.7218 5.07971C14.1051 5.33526 13.5449 5.70983 13.073 6.182L12.094 7.161L11.115 6.182C10.645 5.70135 10.0842 5.31872 9.4653 5.05626C8.84637 4.7938 8.18152 4.65672 7.50925 4.65297C6.83698 4.64922 6.17064 4.77887 5.54882 5.03441C4.92699 5.28994 4.36204 5.66629 3.88666 6.14167C3.41129 6.61704 3.03494 7.182 2.7794 7.80382C2.52386 8.42564 2.39422 9.09198 2.39797 9.76425C2.40172 10.4365 2.53879 11.1014 2.80125 11.7203C3.06371 12.3392 3.44634 12.9 3.92699 13.37L4.90599 14.349L12.094 21.537L19.282 14.349L20.261 13.37C20.7332 12.8981 21.1077 12.3379 21.3633 11.7212C21.6188 11.1045 21.7504 10.4435 21.7504 9.776C21.7504 9.10847 21.6188 8.44748 21.3633 7.83081C21.1077 7.21413 20.7332 6.65386 20.261 6.182V6.182Z" stroke="#303030" stroke-width="1.5" stroke-linecap="round" stroke-linejoin="round"/>
</g>
</svg>
