<svg width="24" height="24" viewBox="0 0 24 24" fill="none" xmlns="http://www.w3.org/2000/svg">
<path d="M19.8801 10.248C19.8801 16.378 12.0001 21.63 12.0001 21.63C12.0001 21.63 4.12012 16.368 4.12012 10.248C4.12012 8.15808 4.95033 6.15377 6.42812 4.67598C7.9059 3.19819 9.91021 2.36798 12.0001 2.36798C14.09 2.36798 16.0943 3.19819 17.5721 4.67598C19.0499 6.15377 19.8801 8.15808 19.8801 10.248V10.248Z" stroke="white" stroke-linecap="round" stroke-linejoin="round"/>
<path d="M14.6282 10.248C14.6282 10.7673 14.4743 11.2749 14.1858 11.7067C13.8973 12.1385 13.4873 12.4751 13.0076 12.6739C12.5279 12.8727 12 12.9249 11.4907 12.8237C10.9813 12.7225 10.5134 12.4726 10.1461 12.1056C9.77873 11.7385 9.52847 11.2708 9.42692 10.7615C9.32537 10.2523 9.37709 9.72434 9.57554 9.24447C9.77399 8.76459 10.1103 8.35433 10.5418 8.06554C10.9734 7.77675 11.4809 7.62241 12.0002 7.62201C12.3452 7.62175 12.6869 7.68948 13.0058 7.82133C13.3246 7.95318 13.6143 8.14657 13.8584 8.39044C14.1024 8.63431 14.296 8.92389 14.4281 9.24262C14.5602 9.56135 14.6282 9.90299 14.6282 10.248V10.248Z" stroke="white" stroke-linecap="round" stroke-linejoin="round"/>
</svg>
