<svg width="24" height="24" viewBox="0 0 24 24" fill="none" xmlns="http://www.w3.org/2000/svg">
<g>
<path d="M21.435 11.4765C21.4397 12.8623 21.1164 14.2295 20.4915 15.4665C19.7518 16.9462 18.6148 18.1907 17.2078 19.0608C15.8008 19.9308 14.1793 20.3919 12.525 20.3925C11.1418 20.396 9.77722 20.0727 8.54253 19.449L2.56653 21.435L4.55853 15.4665C3.93421 14.2294 3.61142 12.8622 3.61653 11.4765C3.61698 9.82238 4.07788 8.20103 4.94763 6.79403C5.81737 5.38702 7.06161 4.2499 8.54103 3.51C9.77617 2.88608 11.1412 2.5628 12.525 2.5665H13.0485C15.2336 2.6869 17.2975 3.60912 18.845 5.15656C20.3924 6.70401 21.3146 8.7679 21.435 10.953V11.4765Z" stroke="#303030" stroke-width="1.5" stroke-linecap="round" stroke-linejoin="round"/>
</g>
</svg>
