<svg width="24" height="24" viewBox="0 0 24 24" fill="none" xmlns="http://www.w3.org/2000/svg">
<g>
<path d="M20.7997 18.9631C20.7997 22.5809 15.7776 23 11.9997 23C11.6189 23 11.2437 22.9945 10.8751 22.9835C10.4367 22.9725 10.0914 22.6084 10.1047 22.1717C10.1168 21.7361 10.4954 21.4083 10.9205 21.405C11.2747 21.4149 11.6344 21.4193 11.9997 21.4193C16.7838 21.4193 19.2102 20.5933 19.2102 18.9631C19.2102 17.3175 16.7838 16.4827 11.9997 16.4827C7.21561 16.4827 4.78924 17.3098 4.78924 18.9411C4.78924 19.4746 4.97963 20.2479 6.63226 20.8045C7.04846 20.9442 7.27095 21.3918 7.13037 21.8043C6.98869 22.2168 6.53928 22.4423 6.12197 22.2993C3.70668 21.4864 3.19971 20.0246 3.19971 18.9411C3.19971 15.396 8.0189 14.9215 11.7669 14.9037L12.4186 14.9039C14.9181 14.9166 20.7997 15.1373 20.7997 18.9631ZM11.9997 1C15.2673 1 17.925 3.64213 17.925 6.88925C17.925 10.1353 15.2673 12.7774 11.9997 12.7774C8.73208 12.7774 6.07327 10.1353 6.07327 6.88925C6.07327 3.64213 8.73208 1 11.9997 1ZM11.9997 2.58066C9.60876 2.58066 7.66391 4.51331 7.66391 6.88925C7.66391 9.26409 9.60876 11.1967 11.9997 11.1967C14.3906 11.1967 16.3355 9.26409 16.3355 6.88925C16.3355 4.51331 14.3906 2.58066 11.9997 2.58066Z" fill="black"/>
</g>
</svg>
